
<global>
amp_veltrack=0
</global>

<group>
amp_veltrack=0
ampeg_decay=20
ampeg_release=0.35
ampeg_sustain=0
group_label=Group_0-45
lpc_hicc1=42
lpc_locc1=0

<region>
hikey=a#3
hivel=127
lokey=a3
lovel=1
lpc=94xdQgv6JMOkfztD/VOzwpqVhsGh+U5CcD2YwbZnz8DPScW/4q1TQTiYpcHje6tBslJPwRSNJD/cdcJArANTwG70BsBBfYW/D4coQZ01JsHgL4C/7oSFQR8zpMGxjwJB
lpc_rms=-22.46
offset=7004
pitch_keycenter=a#3
sample=Cor_invertedmordent_semitone_PP_A#3.opus
tune=-14
</region>

<region>
hikey=a#4
hivel=127
lokey=a4
lovel=1
lpc=+uxQQs8YFsNEmSlDT5Grwir3hcGN9UtCOsZFwdGoY8AAP0XBLpytQZSMj8GxfuQ/F2bFvZzo7sD+571Bt/tnwZ24Pz++XKg/uc7dQPI9O8F7inE/Eh8jQfxIQMHvDrZA
lpc_rms=-23.05
offset=7717
pitch_keycenter=a#4
sample=Cor_invertedmordent_semitone_PP_A#4.opus
tune=-10
</region>

<region>
hikey=c4
hivel=127
lokey=b3
lovel=1
lpc=/wYrQpSA6MJhWuZCP3wcwnwl6sGHizZC0+eLwfK/nECUIWXBmg0mQYmVAUAFMO3AttsZwA0ZA0GkoptA4fgawYDI1UCmKb/AgHiAwEJeNkGOYmHBrRxlQcEKkMCnzZu/
lpc_rms=-25.20
offset=592
pitch_keycenter=c4
sample=Cor_invertedmordent_semitone_PP_C4.opus
tune=-21
</region>

<region>
hikey=c5
hivel=127
lokey=b4
lovel=1
lpc=EEJIQtgi/cK5g9ZCB+P7wDuRXcL8Ni1Cr3UfwWypMUEXvy7B7q1ewEW9k8BAmWJBfKhNvp2bj8GpjIdBwNACQY7Md8GQVa3A1Bd3QdM95sBwlLLAN6rdQLPOnD77OCi/
lpc_rms=-25.64
offset=1433
pitch_keycenter=c5
sample=Cor_invertedmordent_semitone_PP_C5.opus
tune=-9
</region>

<region>
hivel=127
key=d#5
lovel=1
lpc=NG4tQtNi1cLhJtVC96MNwkFoMMIciG9Ckh5NwawJqsFXfJtBMSS1vwdsEMB6RzXBbHNnQSZcasCGU37ASFMkQa4bXMHBly9B3TTZPz4/IcFrIoM/aDY2QX6XNcExmLtA
lpc_rms=-25.61
offset=1779
sample=Cor_invertedmordent_semitone_PP_D#5.opus
tune=-21
</region>

<region>
hikey=d4
hivel=127
lokey=c#4
lovel=1
lpc=VV5+QqGxPMOFk0pDAx6OwiIdYsI6g6xCSCgBwvpNpT9OiHDBvwtkQSRLQMF4Vu1AZu2uQClH/cA1lVpAECUeQfjdisG8ApBAzFATQZvIVMEa4w1B/So+QGQbDMGmcnpA
lpc_rms=-20.53
offset=634
pitch_keycenter=d4
sample=Cor_invertedmordent_semitone_PP_D4.opus
tune=-12
</region>

<region>
hikey=d5
hivel=127
lokey=c#5
lovel=1
lpc=lQiCQpRkEsN2wNxCU7OXP8mzjcL0uVNCPYfOwIEJK0FW8lPBT0cbQSmXyMEa5JZB8TcEQW3h3MFkioZB4I4NQQVu4sAUgcc+bs3UQFaAhsHwZWNB7s2PQIFmv8EcB4xB
lpc_rms=-22.62
offset=112
pitch_keycenter=D5
sample=Cor_invertedmordent_semitone_PP_D5.opus
tune=+19
</region>

<region>
hikey=e4
hivel=127
lokey=d#4
lovel=1
lpc=77MbQqHN1sIdF9pCnjAiwmSV6MFPTlRCRwGnwU9RPsCvyWRA/GbCwHAd2cAapFdBhpBWwH7mqMCoBgBBvDR5QO07R8EeZtVAzrs3PiuD8781bILAK4S9QBm8GL9xXkG/
lpc_rms=-23.99
offset=536
pitch_keycenter=e4
sample=Cor_invertedmordent_semitone_PP_E4.opus
tune=-17
</region>

<region>
hikey=f#3
hivel=127
lokey=f3
lovel=1
lpc=xf+EQg+iP8P0jFVDG7DqwudXp0GesPxAp4C8QQ/5BMII9n1BqvW1wOs3Z0ACDwDBswYhwC/aJUH5VNbA9xV6QXxIysHGbIdBCHaCPxSGsL47ZXjBMligQVx0R8FvJW1A
lpc_rms=-20.62
offset=865
pitch_keycenter=f#3
sample=Cor_invertedmordent_semitone_PP_F#3.opus
tune=+7
</region>

<region>
hikey=f#4
hivel=127
lokey=f4
lovel=1
lpc=8+JTQm+wDMMaUwxDe0Kbwpn/D0J1NJbBBVhQQY9MIUDLZrA+8D95wVCTTkFijzHBC/xTQAotFT3juRFBGWbfwMcHj78pJQFBFoUowf6fMUDTMJ5AjLttwNcldz7VdGE+
lpc_rms=-20.57
offset=5998
pitch_keycenter=f#4
sample=Cor_invertedmordent_semitone_PP_F#4.opus
tune=-18
</region>

<region>
hikey=f5
hivel=127
lokey=e5
lovel=1
lpc=+kIoQgohvMI9m7RC3UkXwtbYmcAARJpAmlmQQd58usF1cJFB5wycv1nmZcFSaJBBrzILweAWLcFv+7ZB/rC1wKRDhMFrgbZBuVPDwEvJlcCtcGPARj40QaMi6cD2PaVA
lpc_rms=-25.92
pitch_keycenter=f5
sample=Cor_invertedmordent_semitone_PP_F5.opus
tune=-31
</region>

<region>
hikey=g#3
hivel=127
lokey=g3
lovel=1
lpc=LIpdQuRZGcPc4hRDJOkgwtw2I8JSPz5CeMmSwaoW9L215QRBm583wfWaD8CsdZBBzzNhwUDg0z6zXztApX++P51IS8Ctcds/jEOPvSFBAUCU3Ge/rAInwXoxW0H/hJHA
lpc_rms=-21.74
offset=5567
pitch_keycenter=g#3
sample=Cor_invertedmordent_semitone_PP_G#3.opus
tune=-2
</region>

<region>
hikey=g#4
hivel=127
lokey=g4
lovel=1
lpc=eMm+QkVNecMQzHdD+QP5wmRn5kEVohfBjNqUQZaMmEGbXjTCn6IDQvi1msGfXIZBkzmbwZpglED+zjtB1SOBwSyCAEHnBgVBTEcawZndFUCFYcq+r1qAQXJUCMKg05dB
lpc_rms=-16.55
offset=6003
pitch_keycenter=g#4
sample=Cor_invertedmordent_semitone_PP_G#4.opus
tune=-11
</region>

<region>
hikey=D6
hivel=127
lokey=f#5
lovel=1
lpc=qL/UQvOla8Pnk2NDxWu3wkloCMINxFpCm35AQbSmqsFAwI3BtkosQnlC9MGT5Is+m0UeQfqwFkG0zZ4/6oa4wPsm2EAyEp3AZCukwLzb/0AFqYU/98O2QEdD8kBEe+rA
lpc_rms=-13.78
offset=601
pitch_keycenter=G5
sample=Cor_invertedmordent_semitone_PP_G5.opus
tune=-37
</region>
</group>

<group>
amp_veltrack=0
ampeg_decay=20
ampeg_release=0.35
ampeg_sustain=0
group_label=Group_46-90
lpc_hicc1=84
lpc_locc1=43

<region>
hikey=a#3
hivel=127
lokey=a3
lovel=1
lpc=qnE5QleWCcMimR9DsAeswm01JUDoYN9BD4XXwKyLuMBTWwTBZ+WOQZh7hMFkKihB8uyNwD/NDj1WiGY/2NUoQNmCDsBonrTA5AkcQf38hsAGMpa/24Z4QCaskcCnFvY/
lpc_rms=-21.84
offset=379
pitch_keycenter=a#3
sample=Cor_invertedmordent_semitone_MF_A#3.opus
tune=-11
</region>

<region>
hikey=a#4
hivel=127
lokey=a4
lovel=1
lpc=QOB6QkosQ8Mvr2ZDO07uwrRdTUH2QJRAns6rQYYWj8GPhp3A88+1PzgyEECKD+0/rOhMQXQB7cF5yP1BEURgwcAfl8GC+OhBro9GwaIGgL/jpjRAAPFmQUPK28FQc05B
lpc_rms=-15.77
offset=16238
pitch_keycenter=a#4
sample=Cor_invertedmordent_semitone_MF_A#4.opus
tune=-13
</region>

<region>
hikey=c4
hivel=127
lokey=b3
lovel=1
lpc=TYcTQvbDzsJ2191C6pRCwpeWZ8HbyQJCpFUmwbFe8L8w/AzBHZGOQZOtl8GozRBBcNMAQaBSiMEfCFNBY+cvwKQg1r+qu/y+NMh9v18fj0DuZLrAv1MZv3rsFEE1ErzA
lpc_rms=-22.63
offset=1135
pitch_keycenter=c4
sample=Cor_invertedmordent_semitone_MF_C4.opus
tune=-13
</region>

<region>
hikey=c5
hivel=127
lokey=b4
lovel=1
lpc=Kf4tQuoe+MJW2wlD32RfwpMZMcLS+p5CwnsqwgohL0H0dBDBoSGoQMyRAb8iSQdAmvQTwOEQBMGMK7VBwN0OwRkfqcHzms5BtADYwBZF3sAkGnxAz/kSQG0jQsASEdo/
lpc_rms=-22.35
offset=14420
pitch_keycenter=c5
sample=Cor_invertedmordent_semitone_MF_C5.opus
tune=-5
</region>

<region>
hivel=127
key=d#5
lovel=1
lpc=CQ6/QYaJXsJQqlpC+O6Uweh+vsFNLBJCgfWewciYW0AealtATgSfP/iplcD9nlO/jXIOQR6aV8HMcl5BpWijwJRaqMCAmsRAjqwZQALXAcGYdwZAGZuhQKFWU8DCeNE/
lpc_rms=-25.09
offset=515
sample=Cor_invertedmordent_semitone_MF_D#5.opus
tune=-21
</region>

<region>
hikey=d4
hivel=127
lokey=c#4
lovel=1
lpc=sSGBQlekPcPI8UVD88uKwtUsBsIHNlJCS46bwetPlj96BzDBgTihQOIyfD5AK01ACCFYQOxHJMGklRFBbaOev4a0lsBbXy9ABeosQGTnFMEiGDpBVuV5wN/nY8BdFRxA
lpc_rms=-18.59
offset=189
pitch_keycenter=d4
sample=Cor_invertedmordent_semitone_MF_D4.opus
tune=-11
</region>

<region>
hikey=d5
hivel=127
lokey=c#5
lovel=1
lpc=Z2mPQhBpNsNGwS9DhEhnwtmgNMLxd2ZC4NZ1wU8TT0EquM3BxZK3QS2PiMHwtgpB3X4NwT8pdUBIZQW/5M4LQU2xkz+HuAHBgR8TQXSuC8HC54/AVNVGQTnIO8H2+v1A
lpc_rms=-19.31
offset=12328
pitch_keycenter=D5
sample=Cor_invertedmordent_semitone_MF_D5.opus
tune=-4
</region>

<region>
hikey=e4
hivel=127
lokey=d#4
lovel=1
lpc=UQQNQgsbwcK5iMFCbL8GwgXGwsFutBBCRzWewAHxR8Hk4XhANt28QGrhOcGrSZZANF5fQDfJ18Blc3VA3eMXQflYVMEIjdxAA4ayP1Jgq8AXZL7AkNFYQeek18DCRYI/
lpc_rms=-21.67
pitch_keycenter=e4
sample=Cor_invertedmordent_semitone_MF_E4.opus
tune=-11
</region>

<region>
hikey=f#3
hivel=127
lokey=f3
lovel=1
lpc=OEmcQuctU8Nq1VRDE9LDwkwVgMDuBNhBE1TWQcZ2G8J7bINB0dVuwe0RIMB+KltBK68/weAE+0BClu9A82LQwKfaZsDBSBhBP4mpwWLd4UE38cjBKzAVQbDX1UBLj6DA
lpc_rms=-18.25
offset=5510
pitch_keycenter=f#3
sample=Cor_invertedmordent_semitone_MF_F#3.opus
tune=+9
</region>

<region>
hikey=f#4
hivel=127
lokey=f4
lovel=1
lpc=gdq8QiT+c8N9lF5DB5Shwgp2n8HBIztCHPw/QIv+9MGno1lBrNTBwIn04L/FMhNAo2UZQVV3tcEeY/pBuV6uwXMW7L6jslZBEw17wXYatEHhTuzB2wSgQQRAAMD41jnA
lpc_rms=-15.03
offset=6902
pitch_keycenter=f#4
sample=Cor_invertedmordent_semitone_MF_F#4.opus
tune=-9
</region>

<region>
hikey=f5
hivel=127
lokey=e5
lovel=1
lpc=On4sQggtz8KwVcFCJsnOwer0pMEobmxBURwqQckdmMGDmzRBSJiwQCoTkcHgoKhBtkKQwBb6tMGMowhCqdl/wXToNsCFvwxBFjNcvx3nN8Hca1dBvQpWQMnEaMEgoyBB
lpc_rms=-22.11
offset=164
pitch_keycenter=f5
sample=Cor_invertedmordent_semitone_MF_F5.opus
tune=-28
</region>

<region>
hikey=g#3
hivel=127
lokey=g3
lovel=1
lpc=9CZqQuCqKcO0l0FDGJ7awpw2WEFHA+lBGPcjwYj50MA8VQbBKTWoQUo6t8GBn8ZBfVqawRKjhUDSwqFAyLovwI2yEUA9fQzBpRQhQea1yrwFVjXArQk9wWq6gkG9DajA
lpc_rms=-21.19
offset=5866
pitch_keycenter=g#3
sample=Cor_invertedmordent_semitone_MF_G#3.opus
tune=-2
</region>

<region>
hikey=g#4
hivel=127
lokey=g4
lovel=1
lpc=F+KUQncqSMOaZ1hDg4wDw7lfK0KrOkjA2t4aQcs76UBkvxnCVe0HQiLbk8BLBwLB71WbwEuZfEFO6+7ATh3GwOk8jsAWq7tBz4ODwR8/4z+FEQy8mt+3QddGM8IkFrxB
lpc_rms=-18.18
offset=4129
pitch_keycenter=g#4
sample=Cor_invertedmordent_semitone_MF_G#4.opus
tune=-9
</region>

<region>
hikey=D6
hivel=127
lokey=f#5
lovel=1
lpc=I57aQkxtfMOe9YJDWrrqwpppkMGLoV9CJSdjwMoWwsEqAQ5BrLGQQVIPS8CAtTXBojwUwQlPGUL990c+IDDswXz7sEGrnCPAo/WQvrZJ3z+Xc1xBtb8jwaueN0A1gvxA
lpc_rms=-12.09
offset=1070
pitch_keycenter=G5
sample=Cor_invertedmordent_semitone_MF_G5.opus
tune=-37
</region>
</group>

<group>
amp_veltrack=0
ampeg_decay=20
ampeg_release=0.35
ampeg_sustain=0
group_label=Group_91-127
lpc_hicc1=127
lpc_locc1=85

<region>
hikey=a#3
hivel=127
lokey=a3
lovel=1
lpc=QrjiQYVVmMJxNpZCKXrYwWImLMFjS5hBdhzWwGLeksAKb51AjlDTP82e/8C3G9dAMOXqP+K8O8GGklJB2MSFwCNfLL+QtWTAyQawQB+8+b+6wMw/k61UwLr9AECfm56+
lpc_rms=-20.48
offset=14641
pitch_keycenter=a#3
sample=Cor_invertedmordent_semitone_FF_A#3.opus
tune=-3
</region>

<region>
hikey=a#4
hivel=127
lokey=a4
lovel=1
lpc=4wzwQSayrsJjnNZCioWQwrqKqEE5tvRAZJhuPgdrT8HtaQZBDYW5QP9+jsFVXolBxoW2wKkEm8DLdNhAnA8HP8wZtcCklC+/GWYFQeN9vMDIeQPAFdH2QIpJzMANdNA/
lpc_rms=-21.57
offset=7411
pitch_keycenter=a#4
sample=Cor_invertedmordent_semitone_FF_A#4.opus
tune=-11
</region>

<region>
hikey=c4
hivel=127
lokey=b3
lovel=1
lpc=1kVJQt9KEcOQvR9DSmyTwt6cbcHNCjpCDx+PwQVJJ8FHmbVAgFcPQNL4o8BXLixBKhxqwdNeuEB5mCBB3FQLwRoNy79IBu0+6OLCQE9sV8Av7F3BZLvjQS7LpcFsqKVA
lpc_rms=-17.94
offset=413
pitch_keycenter=c4
sample=Cor_invertedmordent_semitone_FF_C4.opus
tune=-17
</region>

<region>
hikey=c5
hivel=127
lokey=b4
lovel=1
lpc=N3/lQa8snsIPtK1CpscjwoSSKMHxnthBhWQDwdG5qsDPcqI/wPKvQNekQcFWk4JBPXEpwS0bF8B97BJBTdygwEkA5b7A9hNAmRcfP4OAGsAsOYO/sZE1QBUHBcC8BJA/
lpc_rms=-24.54
offset=556
pitch_keycenter=c5
sample=Cor_invertedmordent_semitone_FF_C5.opus
tune=+2
</region>

<region>
hivel=127
key=d#5
lovel=1
lpc=DoIJQsOopcLl15ZCqFqIwXHi9sHB4vVB/AF4P2s7U8GK6f0/X+o4QXcEG8HvpdLArDqKQRdRcsFGPbRAyLEcQfpQk8HQA25B3Eclv6qgpMA0uZTAv7NLQUF+QMHGdtZA
lpc_rms=-21.12
offset=55
sample=Cor_invertedmordent_semitone_FF_D#5.opus
tune=-12
</region>

<region>
hikey=d4
hivel=127
lokey=c#4
lovel=1
lpc=PlkuQg3j/sKE+gtDXQl8wvoVD8E459RBykyGv2AzXcHOEgfAlNRiQfETRsH7fMVA9l/EP+SVFsGqBWpBDhUgwT6MH7/wqI5AEkC3vr7dQ8BzpiG/kCbZQIOHxsDGH9o/
lpc_rms=-16.48
offset=27
pitch_keycenter=d4
sample=Cor_invertedmordent_semitone_FF_D4.opus
tune=-5
</region>

<region>
hikey=d5
hivel=127
lokey=c#5
lovel=1
lpc=hbMtQqC5+MJ/9A5DglOVwmIGl8AG6RZCTt6JwSPCDsFr4ihB4XkEQOxpl8Fdg8xBX5RDwdVDo8CCTxJBiUOAP7RVrsAohonAwtlJQeDL2cAVEWfAYCIoQR/TQ8ERWstA
lpc_rms=-16.77
offset=371
pitch_keycenter=D5
sample=Cor_invertedmordent_semitone_FF_D5.opus
tune=-7
</region>

<region>
hikey=e4
hivel=127
lokey=d#4
lovel=1
lpc=ya4MQjjqy8JRf9tCVatEwrpkaMDzfc9BDdCDwX4Mp8BWRd9AdmynwKeQzEDkO3Q/i0sMwCYrZL+uII2+VvCmPxBpfcBQGMNAGGlzwOSOpT9cC+K/M09BQGMPA8Bmf/s+
lpc_rms=-17.63
offset=5
pitch_keycenter=e4
sample=Cor_invertedmordent_semitone_FF_E4.opus
tune=-15
</region>

<region>
hikey=f#3
hivel=127
lokey=f3
lovel=1
lpc=ac1UQup0EsM8HhxDpSq5ws/qB0IBBNK+k27hQASAiMFVX5NBIDyowUHeREFPlyrB1RQqQXN8P8HeA6pBP977wDL+MsFEDjJBN7kowLzXbMApATrAImycQHFbh0C8mH3A
lpc_rms=-18.43
offset=991
pitch_keycenter=f#3
sample=Cor_invertedmordent_semitone_FF_F#3.opus
tune=+12
</region>

<region>
hikey=f#4
hivel=127
lokey=f4
lovel=1
lpc=Y6IwQqB9/sIieRhDFX3gwsCXb0K2tabB14h4QY8Eb8HwmoW/gbzfQP9Dij9iiZnAUNz+v9a2o0C9mwg/2dqOwN1nXEBuUHBA4youwYg+EEG8Qwc/XRD0wApGskAAVJK/
lpc_rms=-19.16
offset=9792
pitch_keycenter=f#4
sample=Cor_invertedmordent_semitone_FF_F#4.opus
tune=-7
</region>

<region>
hikey=f5
hivel=127
lokey=e5
lovel=1
lpc=Mm8zQtm13MIYA9RCzb/FweCMGsJiYQJCyyl8Qdg5F8KcCZFBHxUeQZjbk8F78XlB6t2BwHZn/sCXzHBBsJTSwE7XHsGFZH5BJpdfP07CgsEH52ZB32e4QOFwnMFMGlVB
lpc_rms=-18.80
offset=118
pitch_keycenter=f5
sample=Cor_invertedmordent_semitone_FF_F5.opus
tune=-12
</region>

<region>
hikey=g#3
hivel=127
lokey=g3
lovel=1
lpc=d+QuQqei88LVzvpCF5tOwr52KcFYbsxBQw37v6kFiME/rNlAzhXKQEdwLMGxqFpBQ6VtwLdXU8HP5JhBuFtLwYaiKsDCFHJBtxJxwSWNG0GyphTBLMbmQD1ONb4e4LS/
lpc_rms=-18.51
offset=8702
pitch_keycenter=g#3
sample=Cor_invertedmordent_semitone_FF_G#3.opus
tune=+5
</region>

<region>
hikey=g#4
hivel=127
lokey=g4
lovel=1
lpc=EI9yQoqCJMPh6SVDmvanwga3AEJZ11nB5TGAQD4360CHXpDBESaGQRB6K8EaOltBDnpEwZfOAUB3KrA/2YukP786wMAPz0FBOEo0wd3yCL8K5SJByA2IwPrqusAMOJJA
lpc_rms=-16.08
offset=12479
pitch_keycenter=g#4
sample=Cor_invertedmordent_semitone_FF_G#4.opus
tune=-3
</region>

<region>
hikey=D6
hivel=127
lokey=f#5
lovel=1
lpc=qeTXQrCqgMMgYpBD4pUYww0SEcGrKKRCfTcfwhHy8cCQ645Blt5wQRjlEMKTpPtBPUuTvxBsP8EeqYlBRvKrQEa7gcFUeztB4Kz7QJTNI8HPrI0/D0vkQcLr7MHKtpJB
lpc_rms=-8.81
offset=377
pitch_keycenter=G5
sample=Cor_invertedmordent_semitone_FF_G5.opus
tune=-37
</region>
</group>

<group>
amp_veltrack=0
ampeg_attack=2
ampeg_release=0.35
group_label=PP
lpc_hicc1=42
lpc_locc1=0
volume=-3

<region>
hivel=127
key=A#3
loop_end=246576
loop_mode=loop_continuous
loop_start=80153
loop_xfade=20165
lovel=0
lpc=Nhc3Qtd3/sLw8gRDPhKAwmEc+kAGN39ApyxVQVEUicEGsXFA+IJLQZTsusGhnDpBJtrUPsvSOUD8k8PAbnEbQd/xD8EI38jARIeNQR21BsFZpXbAXHksQA7Twj834Eu/
lpc_rms=-27.59
sample=Cor_sustain_PP_A#3.opus
</region>

<region>
hivel=127
key=A#4
loop_end=251900
loop_mode=loop_continuous
loop_start=81884
loop_xfade=20601
lovel=0
lpc=MCiVQorIV8O0H2dDZKnRwjkMOUHNkq/B3byOQvNVYMLQDVY/pJWwQTN8u8HEvK1Bi7SHwTA4eMB7oIlBglYxQQGGMcJK4iVCytgnwZqngMHlLI5BProeQXAs/cEut4NB
lpc_rms=-22.51
sample=Cor_sustain_PP_A#4.opus
</region>

<region>
hivel=127
key=A3
loop_end=254756
loop_mode=loop_continuous
loop_start=82813
loop_xfade=20834
lovel=0
lpc=MrRnQl7gKMMGgD9D9ALJwq7Ug0C9JcdBDxT9P0SOIsHLQDrBlz3TQak6oMEHGanAsoVBQYXdp0CXbTDB5/kNQSChB8ARhwnBI1JhQchuPsEyzQdAEKSbwKVYU0F3ycrA
lpc_rms=-26.54
sample=Cor_sustain_PP_A3.opus
</region>

<region>
hivel=127
key=A4
loop_end=269291
loop_mode=loop_continuous
loop_start=87537
loop_xfade=22023
lovel=0
lpc=oz+NQu3dOcOJiiVDifNiwhNSAkH7Ct7AUBqtQdehF8FV9ITBGiSUQUS4zMGftsVBtAc+wM/KdsGRDYNBHMP8QG5svcG0iMJAVmvEQKYnmkCyeB/B/SE6QbIBgsHuOwlB
lpc_rms=-26.91
sample=Cor_sustain_PP_A4.opus
</region>

<region>
hivel=127
key=B3
loop_end=246639
loop_mode=loop_continuous
loop_start=80174
loop_xfade=20171
lovel=0
lpc=n9BWQj0OF8OYkRhD03xUwnZUksGIP6pBtU2bPx2nOL+yRqLAQud/wCgpDsB1AsdAomNCQRDegsErYp0/ooMbQXIMGsGO+8w/v49vQF2SrcAHrF1AhB/QP9Tnkb68YM+/
lpc_rms=-27.78
sample=Cor_sustain_PP_B3.opus
</region>

<region>
hivel=127
key=B4
loop_end=267272
loop_mode=loop_continuous
loop_start=86881
loop_xfade=21858
lovel=0
lpc=yd+fQmG9SsMakC1DjNcEwmXpNcJkz8NBBXfxQXBV1sGMBDHA0EbkQRCsSsLPSwZCjY/0wKFRv8BOkie/RHSiQRrk+sCE3K7AJbTBv314ukBGeXVAzM2NwdnrGEHTYt8/
lpc_rms=-24.90
offset=14128
sample=Cor_sustain_PP_B4.opus
</region>

<region>
hivel=127
key=C#4
loop_end=255349
loop_mode=loop_continuous
loop_start=83005
loop_xfade=20883
lovel=0
lpc=G/MUQnsgzcKQe81CBVIFwsG5/MEKzjdCB2QYwWSwMMF5Xz+/1qQZQDWDJb8tnIbAvPJHQZOoDMEjIZRAHGjxvEXk+MCSCp5ALrNHQOnvQMBGFm3AHkwRQZDkD8EKQXxA
lpc_rms=-28.85
sample=Cor_sustain_PP_C#4.opus
tune=-1
</region>

<region>
hivel=127
key=C#5
loop_end=232582
loop_mode=loop_continuous
loop_start=75605
loop_xfade=19021
lovel=0
lpc=dTJRQg2Q8MJXz7RC9XwywR73+cGwMQRChMiQvmG8OMGmIcPA1q0yQUsmHMFQ8ApBlzU2QB5HH8HCj15ASLczQF8nxMABE5FA/KrMQJN4fsB0wce/QHgBQTRWtsGzpX5B
lpc_rms=-31.62
sample=Cor_sustain_PP_C#5.opus
</region>

<region>
hivel=127
key=C4
loop_end=259490
loop_mode=loop_continuous
loop_start=84351
loop_xfade=21222
lovel=0
lpc=AUZeQkQGGMNeUBlDq+aAwgTH+sBQQNBBa8ZKwXYAkUF6O8fBvxpTQeaZAcGMr44/2Y4mQTnRUcH+EfBAFKucQN6bAcFUxEi/AnolwBlRH0FAhs7Ak/C4P1zWHEBDNh7A
lpc_rms=-27.55
sample=Cor_sustain_PP_C4.opus
</region>

<region>
hivel=127
key=C5
loop_end=253878
loop_mode=loop_continuous
loop_start=82527
loop_xfade=20763
lovel=0
lpc=YxTQQYQ/cMLic01CQnFVwaXUDsHWDcZAd569QAYfTsD9MKjAMScVQd/oF8EfhlpAW8qLQKPB1cCBLHRAYwxQQP88FsA/owfA51VbvrT8gECYXo7AmofIPSdkjkAiFDnA
lpc_rms=-36.93
sample=Cor_sustain_PP_C5.opus
tune=-2
</region>

<region>
hivel=127
key=D#4
loop_end=243269
loop_mode=loop_continuous
loop_start=79078
loop_xfade=19895
lovel=0
lpc=qA0MQkwRuMIJEKlC6QKTwe+kBMKzmBZC2aY8wSmxx72o0Jk/XsViwJV5j75ZqkQ/h1YOQG4mtL/JXarAHPs2QRrfAcHQoG2/1zavQOXyH78x6E3AuZ5WQPRejMAB/RZA
lpc_rms=-31.11
sample=Cor_sustain_PP_D#4.opus
tune=-1
</region>

<region>
hivel=127
key=D#5
loop_end=246479
loop_mode=loop_continuous
loop_start=80122
loop_xfade=20157
lovel=0
lpc=i64mQgC8sMIIqYJCtnQtwAA4CMJab7NB+o/OQFCd7sD2SSG/RKSgQAlUEcCSY4vAdXgGQAoPKMB8eQtBbicPwAliTb85/MS/gS2VQGvqmMDv4m/AFjIVQV0J28AV/J1A
lpc_rms=-31.28
sample=Cor_sustain_PP_D#5.opus
tune=+2
</region>

<region>
hivel=127
key=D4
loop_end=256011
loop_mode=loop_continuous
loop_start=83221
loop_xfade=20937
lovel=0
lpc=+sMbQpBt4cLqmPlCWXdcwi1S08GQvG1CnUvXwQ1EjsA8UTXAcoU6QQ1eRsHmMpdAt4gSQXFDKcGH28tAJMyjP+9OY8G3OTZBg/lsP1OroMAkWHVARysXQPusy8CShixA
lpc_rms=-25.63
sample=Cor_sustain_PP_D4.opus
tune=-1
</region>

<region>
hivel=127
key=D5
loop_end=243460
loop_mode=loop_continuous
loop_start=79141
loop_xfade=19911
lovel=0
lpc=SBGpQpCOMsN2NAZDcIyuwV4JIsLnYpVBf7GvQU/dTkCwIQfCoYfwQfo9X8GYhqlAcKSkvzFWisH+qt1BKehnP5g2XsHXs9o8aka4QKl0mEDEWjrBi/USwKKHCEEONzlA
lpc_rms=-26.27
sample=Cor_sustain_PP_D5.opus
tune=-1
</region>

<region>
hivel=127
key=E4
loop_end=246255
loop_mode=loop_continuous
loop_start=80049
loop_xfade=20139
lovel=0
lpc=7/hIQtTPC8OZHAlDV2Ezwt6N48HKXyBCs06nP+obiMGlZBXAfDqSP2BgjD99PLzAGfUnQWpcir+y73VAv64FwFW/C8G5O51AsXyDQEX/BcFMB11AfiWAQA9pM8CL5+E9
lpc_rms=-27.68
sample=Cor_sustain_PP_E4.opus
tune=-1
</region>

<region>
hivel=127
key=E5
loop_end=245692
loop_mode=loop_continuous
loop_start=79866
loop_xfade=20093
lovel=0
lpc=iJaXQumSGcNIh+dCriF9wcO3bsKQDIRCHjCJwX17lUD6ixTBwwZeQa4HoMF3yohA2W+qQYNS48E67YhBdJT2QGKGCcH0uCpA8AuZPvb7S0BLA/zAfXiLQAAPncDGXixB
lpc_rms=-25.03
sample=Cor_sustain_PP_E5.opus
tune=-1
</region>

<region>
hikey=F#3
hivel=127
lokey=F3
loop_end=246483
loop_mode=loop_continuous
loop_start=80123
loop_xfade=20158
lovel=0
lpc=vGZaQndyE8OTTBRDcGeNwstiQEF95evAK4AgQucoB8L8RTXAFotgQQJjJcGo5h6/+VDQQKannb2nrK3A2qkpQXoCHMDSMDbB+r+HQKzi0EAX+8zAwSCav0STFkHGr7bA
lpc_rms=-28.10
pitch_keycenter=F#3
sample=Cor_sustain_PP_F#3.opus
tune=-1
</region>

<region>
hivel=127
key=F#4
loop_end=242353
loop_mode=loop_continuous
loop_start=78781
loop_xfade=19820
lovel=0
lpc=3YE7QrNBCsNpaSRDgoHZwgU4LkKPPA3BgqgmQXUfz8B1PBTBeez5QNI2H79ubCXAcx2XP+Ow8z4CfM1AKdvLwOwTjsDqag9Bfde8wHGWhUAcm5rAt2OsQBXRhsDEL78/
lpc_rms=-28.11
sample=Cor_sustain_PP_F#4.opus
tune=-1
</region>

<region>
hivel=127
key=F#5
loop_end=241275
loop_mode=loop_continuous
loop_start=78430
loop_xfade=19732
lovel=0
lpc=8ovVQpPHScP/+CJDjwrewQvVf8K7gilC2ofxQaVhwcGFisnArdMTQqD2k8G909vBCik9Qn63GsIQze9BIGnsP/Ji4L2Ps75AcRwOwF+mHcHA1jVBO+8fweeQckEIFQFB
lpc_rms=-20.91
sample=Cor_sustain_PP_F#5.opus
</region>

<region>
hivel=127
key=F4
loop_end=243425
loop_mode=loop_continuous
loop_start=79129
loop_xfade=19908
lovel=0
lpc=G09SQs6KFcMlFxFDCyDxwZNWS8JTHi5CWaQFQRyh1sFkaAbADYw6QSbjRsBPACBAuj4tQT79pMG4V1ZBVIWRwFV4x8D/Iu5AXWoQQNNWqsDYPKpAz4DTP6zwN8Gl/NdA
lpc_rms=-25.69
sample=Cor_sustain_PP_F4.opus
tune=-1
</region>

<region>
hivel=127
key=F5
loop_end=233468
loop_mode=loop_continuous
loop_start=75893
loop_xfade=19093
lovel=0
lpc=VAeIQkjoC8Owr9pCe652wdW/KsKU8Q9C6cY+Qch3ssH+abJAbzYSQGyaD0DLmmLACe1TQKbyCj/jDaRAaYUTQOSimsF04M1B+JiewE60QMGYSVhB4b+eQGXju8GX06VB
lpc_rms=-26.00
sample=Cor_sustain_PP_F5.opus
tune=-2
</region>

<region>
hivel=127
key=G#3
loop_end=251041
loop_mode=loop_continuous
loop_start=81605
loop_xfade=20531
lovel=0
lpc=krFTQn4oDcPgKQpDZfBtwuGN4r+ixp9BfNYRwUeqQ0HpSLbB+6i1QQf4pMGgyHdBC0kvwfSbGEE+19jAvIdcv3fri0Au89q/9EMgQIn7nsC1oC9ARMJEQKlHhsBw+q0/
lpc_rms=-28.78
sample=Cor_sustain_PP_G#3.opus
</region>

<region>
hivel=127
key=G#4
loop_end=244943
loop_mode=loop_continuous
loop_start=79623
loop_xfade=20032
lovel=0
lpc=XLjDQkQgYMPYGj5D24HEwvTtE0LYD0nBSxGmQSsivUAIE5nBhStKQYNQHcHgmuA/kAlEwZ7aBkF3ymxBeU+mwdJykkBjGMlBseChwYaVYMDgu5VAbqyPQNfHqcHXfoZB
lpc_rms=-24.96
sample=Cor_sustain_PP_G#4.opus
</region>

<region>
hivel=127
key=G3
loop_end=254959
loop_mode=loop_continuous
loop_start=82878
loop_xfade=20851
lovel=0
lpc=pZAyQogF+cL47QpDjsKnwoyU7UFZkY7A2JhCwD7AH0GplirBlwjOQBJGEMHq9U1BHzYEwRF+wEC/eAjB+vXzQEl/RsDYs/6/HkIAwDOB5EBqKS/BMfqcQSkJjME1c7lA
lpc_rms=-29.22
sample=Cor_sustain_PP_G3.opus
tune=-1
</region>

<region>
hivel=127
key=G4
loop_end=249935
loop_mode=loop_continuous
loop_start=81245
loop_xfade=20440
lovel=0
lpc=NXC8Qnaah8NVCJRDDAoZw0xNO0HYzO1BGf+kQd6G4sHzAhLB5ZsQQjXEUsLY8u5BVTWUQOsW68HdNuJBeCXfwKNwyr90UTxBypnNwDIrAcH1NdRA7CcXwOAFeMAvCIpA
lpc_rms=-23.21
sample=Cor_sustain_PP_G4.opus
tune=-1
</region>

<region>
hikey=D6
hivel=127
lokey=G5
loop_end=251330
loop_mode=loop_continuous
loop_start=81699
loop_xfade=20554
lovel=0
lpc=CppeQ2Gd5MNlQLVDpxaiwlGnBcMkAflCn6w5QjLok8LmvIdBkJyhQfnK1sEPB1bCws/ZQh6ng8KqlglCHF8dQSmHq8ADL8fBYkyvwKAj40G9l97Bd8dxQRm1g0LBnG/C
lpc_rms=-18.03
pitch_keycenter=G5
sample=Cor_sustain_PP_G5.opus
</region>
</group>

<group>
amp_veltrack=0
ampeg_attack=2
ampeg_release=0.35
group_label=MF
lpc_hicc1=84
lpc_locc1=43
volume=-3

<region>
hivel=127
key=A#3
loop_end=253914
loop_mode=loop_continuous
loop_start=82539
loop_xfade=20766
lovel=0
lpc=7ij0QUuunsI6Q6FCxoArwtDDMUEZ3xbASKYcQQsXB8HEsAhAf7yBP637Kr9/JRnA/ZlKQE9lkMBUyO4/C/uPQEmix8Ccf4BA2cZ6P/VsZsD3sSJAj9HIv9oBnz6BLXc+
lpc_rms=-24.65
sample=Cor_sustain_MF_A#3.opus
tune=-2
</region>

<region>
hivel=127
key=A#4
loop_end=260234
loop_mode=loop_continuous
loop_start=84593
loop_xfade=21282
lovel=0
lpc=mTaSQpYQUcOTBGVDx+gBw8K9SkKfXi/By4zTP1pdU0GCQ1PCzft5QnqkHcK0zlNBVKiGQc4yAsK9igNCzNsgwtD1I0KTFwDCyVu6QXt1ksA7+hXAL1fjwCslrUCqgAW+
lpc_rms=-15.27
sample=Cor_sustain_MF_A#4.opus
tune=-1
</region>

<region>
hivel=127
key=A3
loop_end=265662
loop_mode=loop_continuous
loop_start=86358
loop_xfade=21726
lovel=0
lpc=oxE+QtH4+8LMiAtD0HHEwod8K0KvtRZAaZqQPQpu78Do4QvAzuGeQS62OMLaiT5CogLMwS7w0EAW3BRA7j2hQEtL2cBEZD/A1br5QC55AcEZ69lALJuKvqSWoMDq0lVA
lpc_rms=-22.45
sample=Cor_sustain_MF_A3.opus
tune=-1
</region>

<region>
hivel=127
key=A4
loop_end=277452
loop_mode=loop_continuous
loop_start=90190
loop_xfade=22691
lovel=0
lpc=l0+QQnMAP8POh0xDcsbywkn60EHSWapBWifaQML7ksGbbg3B1YUIQh+vIsJtSXxBvtG5P5/O98BTHZhBWWyIwZxubEFLMKXAwh2NwFjeWsAGfpK/5EcsQQSkcMDwQMG/
lpc_rms=-17.96
offset=12061
sample=Cor_sustain_MF_A4.opus
tune=-1
</region>

<region>
hivel=127
key=B3
loop_end=265183
loop_mode=loop_continuous
loop_start=86202
loop_xfade=21687
lovel=0
lpc=1I4PQrPiucIpxsBCPmNbwlwoC0Fzo8dBs6/OwXrnEUF/iTpAZ/ptwMznpcASUHNBHdpkwRurYkBVPLpA73b9wK/od0CzrzM/7Ja1wEWbfEDH6uc/Q/JXP2N4GcBiqPu7
lpc_rms=-21.39
sample=Cor_sustain_MF_B3.opus
tune=-1
</region>

<region>
hivel=127
key=B4
loop_end=274065
loop_mode=loop_continuous
loop_start=89089
loop_xfade=22414
lovel=0
lpc=KSF5QrCaIMMzUyJDJOCYwr+VO8HmU3FCNa4+wl1AiEGjAf7AcXVKQYO/38EOOftBdVvmQPQkLsK2fCZCqm5BwccBncGtCY5BcJXHQMrgnsE6XJpBssEPwYysPL86Lf0/
lpc_rms=-16.90
offset=14003
sample=Cor_sustain_MF_B4.opus
</region>

<region>
hivel=127
key=C#4
loop_end=259481
loop_mode=loop_continuous
loop_start=84348
loop_xfade=21221
lovel=0
lpc=ZJzYQcCfjsIJM5BCngYUwkVBAUEcetBAH9qFwDfwtD8AMHrAVh1fQNsg88Cf+hNBHyLsvw1ZC8BB0gBA7kJ5v+fHir8w37A/V25kv0nfmD+KXaY/Z8UVwPmxqb/D5gJA
lpc_rms=-24.66
sample=Cor_sustain_MF_C#4.opus
</region>

<region>
hivel=127
key=C#5
loop_end=252149
loop_mode=loop_continuous
loop_start=81965
loop_xfade=20621
lovel=0
lpc=O237QeverMKTk7pCSLQdwpgbeMHaW/NBbL0vwWhor8DJDshAqsP4vgYUbsDkVhxAq99YQK26HcE33RRBSN9LQC+bYMGtAR9BpvSQP1XPmsDq5GM/yTQyQZgLlsE4QhJB
lpc_rms=-24.38
sample=Cor_sustain_MF_C#5.opus
</region>

<region>
hivel=127
key=C4
loop_end=259443
loop_mode=loop_continuous
loop_start=84336
loop_xfade=21218
lovel=0
lpc=y432QdYxrcIh4MhCdB6AwuxYXEEOJppBRmJYwVWRh8AGtzBBuSMIwXx6Z8AbQ2hB1liDwTrfPUHI8afAnG2LPm7Sh0De6d7AwheiQBna7b7bRW3AmupWQMsAEr6b1RW/
lpc_rms=-22.40
sample=Cor_sustain_MF_C4.opus
tune=-1
</region>

<region>
hivel=127
key=C5
loop_end=267894
loop_mode=loop_continuous
loop_start=87083
loop_xfade=21909
lovel=0
lpc=LejBQR6niMK036JCIvM/wgzYn0DckqxAKQRXQQUrh8ERFGnApR65QaolsMGSKIxAaBciQX10UcG2dgtBWMYRwN8iQcCwx9NA/VYcwKUTmsAiWJFAH43yP6/Ew8BmHl5A
lpc_rms=-26.39
sample=Cor_sustain_MF_C5.opus
</region>

<region>
hivel=127
key=D#4
loop_end=264901
loop_mode=loop_continuous
loop_start=86110
loop_xfade=21664
lovel=0
lpc=zoPeQcNykcJu/5dCwMskwpAymkAeTDlBIoKIwODPOcCcCFVAQZ6PvjXvscCrCX5AhSU3QJpDDcDFcpLAtUsCQWM6j8AAFMm/y94bQOZNXj/3GWvAuPJcQPxYtr/+Z1s+
lpc_rms=-22.90
sample=Cor_sustain_MF_D#4.opus
tune=-1
</region>

<region>
hivel=127
key=D#5
loop_end=261296
loop_mode=loop_continuous
loop_start=84938
loop_xfade=21369
lovel=0
lpc=5zD6QdSCmcKisJ9CfrwewhFJhL94sTxBGOVdvz0RXMCcg4JA/GQUwIPcyT8Wt77AANwhQRVnA8HgLx+/yigRQU3w6cD0pLlAl8VswE++4T1q94M/xOBSQG90GcGqzPVA
lpc_rms=-25.22
sample=Cor_sustain_MF_D#5.opus
tune=-2
</region>

<region>
hivel=127
key=D4
loop_end=254314
loop_mode=loop_continuous
loop_start=82669
loop_xfade=20798
lovel=0
lpc=8n0YQrChzcKR+NVCnQBqwiutZkE6l2tBA9ZRwSqyFcBfFPVAsF37wBqXrT5ExktAGkCzQHTU7sBjditAidOCv9eOuT87+0XAIzevPyY1RD+o2ak/ynQHwO8+sD8ZPV+/
lpc_rms=-20.96
sample=Cor_sustain_MF_D4.opus
tune=-1
</region>

<region>
hivel=127
key=D5
loop_end=247695
loop_mode=loop_continuous
loop_start=80517
loop_xfade=20257
lovel=0
lpc=rrnYQfGDjMJbgpNCDLUEwpZvaMEGOwRC9TxSwV0218DrUgRB0kkeQCM+KsEsP/0/IFRFQRQvjcHBlvlAJw8iQe0fUcGpLpFAmJqgP6KXRz/NmGTAsj4fPoeNIz8sn64/
lpc_rms=-26.51
sample=Cor_sustain_MF_D5.opus
</region>

<region>
hivel=127
key=E4
loop_end=261424
loop_mode=loop_continuous
loop_start=84980
loop_xfade=21380
lovel=0
lpc=BVw+QkI4BMMJ7w1D4H6hwuCvlkGRlN5BpgfQwTOCTEAsTIhANCKJwXdchEFMSjDAfUgyv6ZDFkFrQRzBCU9HwBzW4EBeQkXBN62BQbDh4MB0Vdk+4xxjQKBxzsB/mEFA
lpc_rms=-19.15
sample=Cor_sustain_MF_E4.opus
tune=-2
</region>

<region>
hivel=127
key=E5
loop_end=262953
loop_mode=loop_continuous
loop_start=85477
loop_xfade=21505
lovel=0
lpc=22UwQlk24MKL4wFDnN6owl2kjkGiNtJBJB0IwprA2kGgkJHAimOKwXT2r0FZP4/BgrdmQcQ43MA3RtTAXOlzQeaRa8CRVV3Av+lZwM9egUF+IKbBip5WQQHZ8MAeHMtA
lpc_rms=-19.28
sample=Cor_sustain_MF_E5.opus
tune=-1
</region>

<region>
hikey=F#3
hivel=127
lokey=F3
loop_end=253914
loop_mode=loop_continuous
loop_start=82539
loop_xfade=20766
lovel=0
lpc=WJk4QsRO78KAxgBDBl+mwjKdg0GzMp1BZkIAQfgeEMJvoxpCfVrtwLMRmcHNyLBA79okQVj1wcH9lJJB7CITQLjHAcHj7XVAy/YXQdRqqcBq3T7BIyWGQde1e8GhOexA
lpc_rms=-24.02
pitch_keycenter=F#3
sample=Cor_sustain_MF_F#3.opus
tune=-1
</region>

<region>
hivel=127
key=F#4
loop_end=271166
loop_mode=loop_continuous
loop_start=88147
loop_xfade=22176
lovel=0
lpc=5iT7QWTfssJ9tt5CXem2wjYYZUJT9PvBRij2QXpY/MFLtplBbVtQwOJquMBYlAVA1BAKQDCYfr97vYe+YAUqQMp4TcA2CZFAOTsWwXabGkFJ01DAyEc2wN5nPUAVyvi+
lpc_rms=-22.96
sample=Cor_sustain_MF_F#4.opus
tune=-1
</region>

<region>
hivel=127
key=F#5
loop_end=251326
loop_mode=loop_continuous
loop_start=81697
loop_xfade=20554
lovel=0
lpc=tQ/DQViiL8K7ai1C2aW4wRURtT/i1fBAuVr3wGfVWUHqROzAN5RcQBICnz95qEjApfdkQGzk2sD8WCJBC0t+wHqXtUASQpC/qjucvUu8fb/z/Lo/ftMRv96gw782bOFA
lpc_rms=-27.31
sample=Cor_sustain_MF_F#5.opus
</region>

<region>
hivel=127
key=F4
loop_end=264070
loop_mode=loop_continuous
loop_start=85840
loop_xfade=21596
lovel=0
lpc=6zbwQUOQscJGocpCJgRWwncmGkFBlbFAP7jbvzY+NMGRjZFB/DR1wZTpJ0Hyh3PA2o/Fv2KZ4j+9eALBbbSdQRlCnMFQixBBsdp0v+j2ecA2AFpAmty/QDH6KcFDO5FA
lpc_rms=-22.50
sample=Cor_sustain_MF_F4.opus
</region>

<region>
hivel=127
key=F5
loop_end=254194
loop_mode=loop_continuous
loop_start=82630
loop_xfade=20788
lovel=0
lpc=f2yQQfPJIcJa8x5CNepawflUDsETPDRBvH0iwOHCPsBvFq9AoIUswNaZdb44zbE+All8QCrvm8AK2kk/ZEnSQN/kIsGL9CVBtLvdwIKUYkArB7i/vegMQHtDHsAN8zNA
lpc_rms=-26.72
sample=Cor_sustain_MF_F5.opus
</region>

<region>
hivel=127
key=G#3
loop_end=254388
loop_mode=loop_continuous
loop_start=82693
loop_xfade=20804
lovel=0
lpc=s6NcQklfE8M35SFDzt3ZwoEtI0JWozxBH/gWwdJ4C8FGAplBk/SUwWX8/8AulatBJFAkwbmwAEDRYhxBK1gQwe/qmsAykaJAjtS2wBLC8EC0IwTAKbSqv4uER0CwgQLA
lpc_rms=-17.78
sample=Cor_sustain_MF_G#3.opus
tune=-1
</region>

<region>
hivel=127
key=G#4
loop_end=269131
loop_mode=loop_continuous
loop_start=87485
loop_xfade=22010
lovel=0
lpc=3VTfQrb1i8NW9oVD+yQww7pq20JgZNjBKbYRQX3b7cABWoLBzEE1QQbLQ8EXL5BAXyQoQEa+3EGEMqzBfbP6wNaUokDAnFPBaIeGQWQlRsDXmxxB8971QLP7JcK+i8ZB
lpc_rms=-12.91
sample=Cor_sustain_MF_G#4.opus
tune=-1
</region>

<region>
hivel=127
key=G3
loop_end=265474
loop_mode=loop_continuous
loop_start=86297
loop_xfade=21711
lovel=0
lpc=pYcdQm3FzsIAId1Csx+TwmNZ8kGNLQxA8EUyQC8QlcHvtZxB8JgDwWAg5cAhV3dB5u0lwRVFkcDazFVBnvgmwTo3bkCMpWE/2vYfwGtVGUDnVpC+ScYgvzrcML4sjqc+
lpc_rms=-23.10
sample=Cor_sustain_MF_G3.opus
tune=-1
</region>

<region>
hivel=127
key=G4
loop_end=262467
loop_mode=loop_continuous
loop_start=85319
loop_xfade=21465
lovel=0
lpc=S5NlQiQzIsPH+j1DtTPrwj/lB0IlqFLAHOqlQaXACMJCks9BJvtRwC38BsGmrPXAqFKhQa8X8MBMAz7A6lcTQC9t378lwbBA+xDswPq9CEADT9dAMowxwYpYBkE/3xDA
lpc_rms=-17.73
sample=Cor_sustain_MF_G4.opus
tune=-3
</region>

<region>
hikey=D6
hivel=127
lokey=G5
loop_end=244926
loop_mode=loop_continuous
loop_start=79617
loop_xfade=20030
lovel=0
lpc=xMEEQwUMe8P5KkxDC6qWwqgRoMHM9UVCdLC/wZup70E4W7TAkMflwO6WEsEy2IrADsANQtQHGMJVSyRC2hSZQJydqsEyHrRAMOU6QGVTRMAsqKLBqQ1gQgPzasHp9qHA
lpc_rms=-18.21
pitch_keycenter=G5
sample=Cor_sustain_MF_G5.opus
tune=+1
</region>
</group>

<group>
amp_veltrack=0
ampeg_attack=2
ampeg_release=0.35
group_label=FF
lpc_hicc1=127
lpc_locc1=85
volume=-3

<region>
hivel=127
key=A#3
loop_end=271409
loop_mode=loop_continuous
loop_start=88226
loop_xfade=22196
lovel=0
lpc=0e4hQg9S5MIrxgRDABq6wmb2K0LUyyPAnz4vwSJCV0FIdD7BX2uWQIN9fsACiAhAh6QLQKOS0r9ZNzhA8L88wEhAUb0PogXATONeQLBwxL71iOW/JWopQEJLkb89L6m+
lpc_rms=-16.46
sample=Cor_sustain_FF_A#3.opus
tune=-1
</region>

<region>
hivel=127
key=A#4
loop_end=271482
loop_mode=loop_continuous
loop_start=88249
loop_xfade=22202
lovel=0
lpc=2VCBQt3PRsOqhHFDSacXw6RyPEIdSFFBt+UiwYWxSsHxBefA4hsVQraFEsLQJkdB+kyaQa+NBcJPJalBSvkFQZWo/sGZy41B3haMQIfI7D/fsWbBUYbnQfaBB8IUZGJB
lpc_rms=-9.47
sample=Cor_sustain_FF_A#4.opus
tune=-1
</region>

<region>
hivel=127
key=A3
loop_end=271419
loop_mode=loop_continuous
loop_start=88229
loop_xfade=22197
lovel=0
lpc=buEnQr0Z5cInoANDohu2wsU0AULHaPhAftkxwIrrqsCBSAY/LeIeQWWkqsEocHdBXWTNwGE2fkDBCmW/MnaeQC0J7MDyEy9AA6yEP2LXDsCqSi1Aubu0wH0C3UDfMB/A
lpc_rms=-17.26
sample=Cor_sustain_FF_A3.opus
tune=-2
</region>

<region>
hivel=127
key=A4
loop_end=283744
loop_mode=loop_continuous
loop_start=92236
loop_xfade=23205
lovel=0
lpc=Up+BQnY+MMPqgTtDQ6jhwipGD0JwuvtAE6U0QZNYrMFz57jAswXqQVNYE8KJGGlB8r1BQaI7q8GvS55BhGEmwOMa0cDRX4vA6PBKQen45MAQM73A9GCLQVYZl8HFZwRB
lpc_rms=-13.72
offset=14087
sample=Cor_sustain_FF_A4.opus
tune=-2
</region>

<region>
hivel=127
key=B3
loop_end=269450
loop_mode=loop_continuous
loop_start=87589
loop_xfade=22036
lovel=0
lpc=X54RQuqizMK8tttCDyRlwuuVZEEoq/9ALG5/wQCrQEFvrafAhTKxv1RrJ0BP/4NAebTjwKb5G0CKXW0/tdtbvfvV/r7BlLe/cZjPQBdOHcEaEbpALdiHwJtC5kDgDXzA
lpc_rms=-16.64
sample=Cor_sustain_FF_B3.opus
</region>

<region>
hivel=127
key=B4
loop_end=280374
loop_mode=loop_continuous
loop_start=91140
loop_xfade=22930
lovel=0
lpc=D/ONQqPUUMN0DXpDwaoYw1rVy0GAY1BCQsBlwim170HJiOHALm6sPPificEnMA1CnNOuwQ5x2cAb2bNByzGYwdVdLEFOLmbBwSWUQVfNS8GjDfJANLbePzjaP8G2iu9A
lpc_rms=-13.02
offset=16781
sample=Cor_sustain_FF_B4.opus
</region>

<region>
hivel=127
key=C#4
loop_end=269298
loop_mode=loop_continuous
loop_start=87540
loop_xfade=22024
lovel=0
lpc=Rkm5QaTSccLRd19CEVuOwRNQwMDFyRRBvR4iwAtOJr6rSCTAKBvRP5yHM78O+uW/vk/LQHpobsCT7qi/KsIXQOtMKMB3/DY/8yEzQE5V079IBei/RX42QD0XJsC9g6M/
lpc_rms=-18.57
sample=Cor_sustain_FF_C#4.opus
</region>

<region>
hivel=127
key=C#5
loop_end=271198
loop_mode=loop_continuous
loop_start=88157
loop_xfade=22179
lovel=0
lpc=1PcjQgmu1MJkhdRCqPFHwrqQGL/uUalBJ9rFwAXwDcHHnTBBVaXYwG9OysDxf3dBpItawRId4D8vfOtAWu6bPn67H8FzohhBg1R+v3fy9j0FW7TAuwoBQak1K8HqAOBA
lpc_rms=-17.23
sample=Cor_sustain_FF_C#5.opus
</region>

<region>
hivel=127
key=C4
loop_end=270992
loop_mode=loop_continuous
loop_start=88090
loop_xfade=22162
lovel=0
lpc=r+E/QrCdEMNVaitDdaS8wjhwq0BsEiNCARAfwtWvK0G4YHxBVpm5wS1+eEHv2aa/JJ8fwWuOD0HEdfE+shRSwILOhD+VbTDAOQR5QP42A8CjmoW/3J5jQBgh2L9pHWK+
lpc_rms=-15.43
sample=Cor_sustain_FF_C4.opus
tune=-1
</region>

<region>
hivel=127
key=C5
loop_end=271864
loop_mode=loop_continuous
loop_start=88374
loop_xfade=22234
lovel=0
lpc=EhVJQi1OD8Phyy1DWr/Xwn2hP0B4llZCVMfUwco3YMFQnohBNm8ZQYSsD8JmFwZCDQsswZg4+sDwcvlAeg4oQc6im8GrmiBBC8q8QKV/UsFG2wNA7YEdQehhI8F3nZ9A
lpc_rms=-16.32
sample=Cor_sustain_FF_C5.opus
tune=-2
</region>

<region>
hivel=127
key=D#4
loop_end=265623
loop_mode=loop_continuous
loop_start=86345
loop_xfade=21723
lovel=0
lpc=Fo/XQY8phsLobXdCD7jFwQPnhb/taABBAVyiv5QercCoBBVB6SwIwfHX1D/1mxU/69mVQDLQpMDNeJ6+6asQQJgfHcDRyh1AoQDjv6Yr6j5b2YE/o8QHvknR1z7zG3i/
lpc_rms=-19.04
sample=Cor_sustain_FF_D#4.opus
</region>

<region>
hivel=127
key=D#5
loop_end=268506
loop_mode=loop_continuous
loop_start=87282
loop_xfade=21959
lovel=0
lpc=N0E0Qlds5sL6xP1C+QaKwsTAPMDKzNlBjcprQNSc8sHFuPtB4sQOwePvbMENypZB5qxBwa82PMDsQJRBvHt9wabsBkBsOklBsxn1wHsEkcCaP5JAkb6qP23xBsHtlwVB
lpc_rms=-16.72
sample=Cor_sustain_FF_D#5.opus
tune=-1
</region>

<region>
hivel=127
key=D4
loop_end=270649
loop_mode=loop_continuous
loop_start=87979
loop_xfade=22134
lovel=0
lpc=dFgUQnQfz8Lef9lCN95KwmvPEb4RFM1BL2HXwc+bUEEDeqi9Q1bhv7v6ncDBEJZAfucbQOzKf8BQAnW/dkbTQKvS+MBJJ4hA7YmEv5jgzb+s/BRAoKyFP5UEEsA0+hU/
lpc_rms=-15.02
sample=Cor_sustain_FF_D4.opus
tune=+2
</region>

<region>
hivel=127
key=D5
loop_end=263625
loop_mode=loop_continuous
loop_start=85695
loop_xfade=21560
lovel=0
lpc=DSZuQn2nGcOMiCVDoWyswvxdjMEvBo1CqjUwwuWx70CBRg5BBIPpP/pyz8HOiLlB4KfRvZcKoMEvPI1B2huKQNyWAsEuZXXAJiiZQV92ksFFu3A/8ZFLQdTPnsEPk1BB
lpc_rms=-15.68
sample=Cor_sustain_FF_D5.opus
</region>

<region>
hivel=127
key=E4
loop_end=261613
loop_mode=loop_continuous
loop_start=85042
loop_xfade=21395
lovel=0
lpc=id3gQf65mcKeWJ1CpUwawiNnzECi6FZBiqR4wQFo/0Bs49zAFhciQLkOLUALUWbAYp6bQLriHsC6ChjAj7jsQJKgJ8E1erdAPqjlP4YxF8CIRAjA0lQJQPNazD+K5bq/
lpc_rms=-18.00
sample=Cor_sustain_FF_E4.opus
</region>

<region>
hivel=127
key=E5
loop_end=257265
loop_mode=loop_continuous
loop_start=83628
loop_xfade=21040
lovel=0
lpc=MbEyQpk3xMKvibJCiHAXwgq/nMA0NJ5BXZGpwBObNMGDMJlBI+nWwOql8sAdj9ZAXJABQCuwB8EH3clAqpKxPwfY1UB8aU3BhRwEQbxghkBWoQvB1HqyQP/eD8GkiSJB
lpc_rms=-16.36
sample=Cor_sustain_FF_E5.opus
tune=-2
</region>

<region>
hikey=F#3
hivel=127
lokey=F3
loop_end=273977
loop_mode=loop_continuous
loop_start=89061
loop_xfade=22406
lovel=0
lpc=E91AQuLhCMO8ByVDHzkAw2w1hkJYk3vAP6PJwQBfBkK4IuTBaTGHQfxXGMEL08DA66M6QXjnD8HAzThBlMjhwKUotUD7s8TA9lR1P1dW3D9OBm8/oJE5wWxygEFw58rA
lpc_rms=-17.07
pitch_keycenter=F#3
sample=Cor_sustain_FF_F#3.opus
</region>

<region>
hivel=127
key=F#4
loop_end=265545
loop_mode=loop_continuous
loop_start=86320
loop_xfade=21717
lovel=0
lpc=UGEIQg3WvsIcqN9C45OZwns9zUE4hqtAE3UiQXwKAsLVLelBdusPwczm1MAkjE0/q8cVQZCyL8GzlLxAVLHAQOqG/sBnVIo/dXnVv8QLzkByiSvBQmD+QGSPjj7KW82/
lpc_rms=-17.98
sample=Cor_sustain_FF_F#4.opus
</region>

<region>
hivel=127
key=F#5
loop_end=257793
loop_mode=loop_continuous
loop_start=83800
loop_xfade=21083
lovel=0
lpc=R1NtQnLW48L+2edCniOEwjJ0A0GX9plB1PwtwSc1BEGh23dAWUfRv9XXwUBYA0TBy3FuQWz2s8FMehBCplrIwWb9lUFe2oa/ThJ2PwO5M8FLkhVBlHyTQH5VLMEoaoNB
lpc_rms=-13.81
sample=Cor_sustain_FF_F#5.opus
tune=-2
</region>

<region>
hivel=127
key=F4
loop_end=269686
loop_mode=loop_continuous
loop_start=87666
loop_xfade=22055
lovel=0
lpc=SMjUQT2TmcKmzKtC4BkgwiiWqcDN2nxBddO5wP+vi79PQQxA2amcvzmICsAVbaxAK/k7wFuKrr/6KTE/97kmQD0DWcAI6VY/RbycPSbqCUDpPWnAGq2HQBQGQ8CODk8/
lpc_rms=-17.18
sample=Cor_sustain_FF_F4.opus
</region>

<region>
hivel=127
key=F5
loop_end=266488
loop_mode=loop_continuous
loop_start=86626
loop_xfade=21794
lovel=0
lpc=48IiQgtw1sL06OpClHs3wiug98Hag0pCm+WowY5u08AzxRVBoYPlP08SkT4niFbB9DimQaAmUMGGlqNA6Ed0P2lcTcA1qOHAmorHQbYQmcGERe3A3+rVQez0uMGKICZB
lpc_rms=-15.28
sample=Cor_sustain_FF_F5.opus
tune=-1
</region>

<region>
hivel=127
key=G#3
loop_end=270382
loop_mode=loop_continuous
loop_start=87892
loop_xfade=22112
lovel=0
lpc=srgFQoK9r8ItlbRCMJtEwsFsFUH9UB9BAXe7wPj+O0DXe3DAGl6fQP6vHcEu/QFBIIC8wPkx10BIAXE/PvbewDPzlED/r6y95Nx2wHCA/T+qpaK8T1DFv/P6oECjkEDA
lpc_rms=-18.20
sample=Cor_sustain_FF_G#3.opus
tune=-1
</region>

<region>
hivel=127
key=G#4
loop_end=274415
loop_mode=loop_continuous
loop_start=89203
loop_xfade=22442
lovel=0
lpc=q+FKQkAMBMM4QwNDgYSIwgjaekH/uedAXzq0v6gOEUAtRTfB1Ap0QVHVj8FMQidBp+tjv972l75LNzRB0TOPwQ4IfUDm3MtAil2mwPizCEBZnaG8pWdUPl+UIMAxrw9A
lpc_rms=-14.84
sample=Cor_sustain_FF_G#4.opus
</region>

<region>
hivel=127
key=G3
loop_end=272594
loop_mode=loop_continuous
loop_start=88611
loop_xfade=22293
lovel=0
lpc=laY+QnxBAMOjTQdDrHeewntg0EH5qapAxUOtwBl/CL+BhH1AniThwGAmkb+G7IxAxeKnQCyKRsGSXXBB3tlVwTJpO0HDujbBfym+QEab0r8HcKW/DDZxQNCWi79fHNW+
lpc_rms=-14.75
sample=Cor_sustain_FF_G3.opus
</region>

<region>
hivel=127
key=G4
loop_end=272475
loop_mode=loop_continuous
loop_start=88572
loop_xfade=22284
lovel=0
lpc=axAuQiev+cKT0g9DnAW0woFGAkJYZpK/nGbGwPPWsEAHnBrAK6HHvroF4b9PzwxB97tKwfktBEDfiE5BkKaJwYGzWUEDS9/AgAweQHDsTr+hv1zA0nkJQQpwAcH2vT1A
lpc_rms=-12.67
sample=Cor_sustain_FF_G4.opus
tune=-1
</region>

<region>
hikey=D6
hivel=127
lokey=G5
loop_end=253452
loop_mode=loop_continuous
loop_start=82389
loop_xfade=20728
lovel=0
lpc=CckHQ4WMn8Pm1ahDrp8OwzBHlsIq3xZD3xsnwgh0lcIK45ZCqbBWQR6qaML4jERC68yYwCWyisEL2rdB6P+GwdLKhEGkXxVAM12gwSYiV0JEpmPC93f6QYQFML816LVA
lpc_rms=-10.06
pitch_keycenter=G5
sample=Cor_sustain_FF_G5.opus
tune=+1
</region>
</group>